{"title":"MST3K First Spaceship on Venus(1990)MP-4[DaScubaDude]","uid":12497788,"size":1195574282,"categoryP":"video","categoryS":"movies","magnet":"?xt=urn:btih:ff8167971d91a8297342a963e304b7d66ea4a825&amp;dn=MST3K+First+Spaceship+on+Venus%281990%29MP-4%5BDaScubaDude%5D&amp;tr=udp%3A%2F%2Ftracker.leechers-paradise.org%3A6969&amp;tr=udp%3A%2F%2Fzer0day.ch%3A1337&amp;tr=udp%3A%2F%2Fopen.demonii.com%3A1337&amp;tr=udp%3A%2F%2Ftracker.coppersurfer.tk%3A6969&amp;tr=udp%3A%2F%2Fexodus.desync.com%3A6969","seeders":1,"leechers":0,"uploader":"dascuba","files":1,"time":1443309909,"description":"First Spaceship on Venus (29 Dec. 1990)\r\nTV Episode  |  TV-14  |  97 min  |  Comedy, Sci-Fi\r\n7.5 Your rating:   -/10   Ratings: 7.5/10 from 165 users   \r\nReviews: 1 user | 4 critic\r\nJoel and the 'bots suffer through First Spaceship on Venus (1960). A gorilla in a foreign ship attacks the Satellite of Love.\r\n\r\nDirector: Jim Mallon\r\nWriters: Joel Hodgson (creator), Michael J. Nelson (head writer), 5 more credits »\r\nStars: Trace Beaulieu, Joel Hodgson, Jim Mallon \r\n\r\nGeneral\r\nComplete name     : C:First Spaceship on Venus1ST_SPACESHIP_ON_VENUS_Title7.mp4\r\nFormat                                   : MPEG-4\r\nFormat profile                           : Base Media\r\nCodec ID                                 : isom\r\nFile size                                : 1.11 GiB\r\nDuration                                 : 1h 37mn\r\nOverall bit rate mode                    : Constant\r\nOverall bit rate                         : 1 634 Kbps\r\nMovie name                               : 1ST_SPACESHIP_ON_VENUS\r\nGenre                                    : Sci_Fi\r\nWriting application                      : Lavf54.6.100\r\n\r\nVideo\r\nID                                       : 1\r\nFormat                                   : MPEG-4 Visual\r\nFormat settings, BVOP                    : No\r\nFormat settings, QPel                    : No\r\nFormat settings, GMC                     : No warppoints\r\nFormat settings, Matrix                  : Default (H.263)\r\nCodec ID                                 : 20\r\nDuration                                 : 1h 37mn\r\nBit rate mode                            : Constant\r\nBit rate                                 : 1 500 Kbps\r\nWidth                                    : 720 pixels\r\nHeight                                   : 540 pixels\r\nDisplay aspect ratio                     : 4:3\r\nFrame rate mode                          : Constant\r\nFrame rate                               : 29.970 fps\r\nColor space                              : YUV\r\nChroma subsampling                       : 4:2:0\r\nBit depth                                : 8 bits\r\nScan type                                : Progressive\r\nCompression mode                         : Lossy\r\nBits/(Pixel*Frame)                       : 0.129\r\nStream size                              : 1.02 GiB (92%)\r\nWriting library                          : Lavc54.23.100\r\n\r\nAudio\r\nID                                       : 2\r\nFormat                                   : MPEG Audio\r\nFormat version                           : Version 1\r\nFormat profile                           : Layer 3\r\nCodec ID                                 : 6B\r\nDuration                                 : 1h 37mn\r\nBit rate mode                            : Constant\r\nBit rate                                 : 128 Kbps\r\nChannel(s)                               : 2 channels\r\nSampling rate                            : 44.1 KHz\r\nCompression mode                         : Lossy\r\nStream size                              : 89.3 MiB (8%)\r\nWriting library                          : LAME3.99.5","torrent":{"xt":"urn:btih:ff8167971d91a8297342a963e304b7d66ea4a825","amp;dn":"MST3K+First+Spaceship+on+Venus%281990%29MP-4%5BDaScubaDude%5D","amp;tr":["udp%3A%2F%2Ftracker.leechers-paradise.org%3A6969","udp%3A%2F%2Fzer0day.ch%3A1337","udp%3A%2F%2Fopen.demonii.com%3A1337","udp%3A%2F%2Ftracker.coppersurfer.tk%3A6969","udp%3A%2F%2Fexodus.desync.com%3A6969"],"infoHash":"ff8167971d91a8297342a963e304b7d66ea4a825","infoHashBuffer":{"type":"Buffer","data":[255,129,103,151,29,145,168,41,115,66,169,99,227,4,183,214,110,164,168,37]},"announce":[],"urlList":[]}}